<svg xmlns="http://www.w3.org/2000/svg" viewBox="0 0 500 500"><defs><style>.cls-1{fill:#ebebeb;}.cls-2{fill:#e6e6e6;}.cls-3{fill:#fafafa;}.cls-4{fill:#f0f0f0;}.cls-5{fill:#f5f5f5;}.cls-11,.cls-15,.cls-6{fill:#fff;}.cls-7{fill:#263238;}.cls-8{fill:#ff8b7b;}.cls-9{fill:#407bff;}.cls-10,.cls-15{opacity:0.2;}.cls-11{opacity:0.1;}.cls-12{fill:#ff5652;}.cls-13{fill:#ffc3bd;}.cls-14{fill:#ed847e;}.cls-16{fill:#e0e0e0;}</style></defs><g id="Messenger"><rect class="cls-1" y="382.4" width="500" height="0.25"/><rect class="cls-1" x="300.71" y="391.07" width="33.12" height="0.25"/><rect class="cls-1" x="395.2" y="399.15" width="8.69" height="0.25"/><rect class="cls-1" x="335.59" y="395.4" width="19.19" height="0.25"/><rect class="cls-1" x="52.46" y="390.89" width="43.19" height="0.25"/><rect class="cls-1" x="244.67" y="390.89" width="6.33" height="0.25"/><rect class="cls-1" x="141.69" y="395.24" width="45.31" height="0.25"/><path class="cls-1" d="M237,337.8H43.91a5.71,5.71,0,0,1-5.7-5.71V60.66A5.71,5.71,0,0,1,43.91,55H237a5.71,5.71,0,0,1,5.71,5.71V332.09A5.71,5.71,0,0,1,237,337.8ZM43.91,55.2a5.46,5.46,0,0,0-5.45,5.46V332.09a5.46,5.46,0,0,0,5.45,5.46H237a5.47,5.47,0,0,0,5.46-5.46V60.66A5.47,5.47,0,0,0,237,55.2Z"/><path class="cls-1" d="M453.31,337.8H260.21a5.72,5.72,0,0,1-5.71-5.71V60.66A5.72,5.72,0,0,1,260.21,55h193.1A5.71,5.71,0,0,1,459,60.66V332.09A5.71,5.71,0,0,1,453.31,337.8ZM260.21,55.2a5.47,5.47,0,0,0-5.46,5.46V332.09a5.47,5.47,0,0,0,5.46,5.46h193.1a5.47,5.47,0,0,0,5.46-5.46V60.66a5.47,5.47,0,0,0-5.46-5.46Z"/><circle class="cls-2" cx="99.93" cy="108.83" r="35.38"/><path class="cls-3" d="M121.21,106.44h-.29A3.15,3.15,0,0,0,124,103.7h0a3.15,3.15,0,0,0-3.12-3.54h-1.61l-10.59-1a2.19,2.19,0,0,1-2-2.47c.17-1.35.32-2.93.37-4.44.11-3.72-2.35-8.3-5.77-6.66-1.39.67-.55,5.28-1.22,7.1s-7,7.21-8.82,11h0a2.92,2.92,0,0,0-1.79,2.69v13.73a2.92,2.92,0,0,0,.86,2.07l1.48,1.48a5.43,5.43,0,0,0,3.84,1.59h21.75a3.14,3.14,0,0,0,3.12-2.74h0a3.15,3.15,0,0,0-3.12-3.54h2.32a3.15,3.15,0,0,0,3.12-2.75h0a3.14,3.14,0,0,0-3.12-3.54h1.44a3.13,3.13,0,0,0,3.11-2.74h0A3.14,3.14,0,0,0,121.21,106.44Z"/><rect class="cls-4" x="75.51" y="102.02" width="11.98" height="23.54" rx="1.86"/><path class="cls-4" d="M347.42,96.64a14.57,14.57,0,0,0-20-13.38,17.61,17.61,0,0,0-33,3.89,15.16,15.16,0,0,0,1,30.28h48.22a10.75,10.75,0,0,0,3.83-20.79Z"/><path class="cls-5" d="M376.67,311a8.91,8.91,0,0,0-8.91-8.84,9,9,0,0,0-3.33.65,10.77,10.77,0,0,0-20.18,2.38,9.26,9.26,0,0,0,.6,18.51h29.48a6.56,6.56,0,0,0,2.34-12.7Z"/><circle class="cls-2" cx="420.39" cy="279.96" r="27.34"/><path class="cls-3" d="M433.69,270.27a9.39,9.39,0,0,0-13.3,0,9.4,9.4,0,0,0-13.3,13.3l13.3,13.31,13.3-13.31A9.39,9.39,0,0,0,433.69,270.27Z"/><path class="cls-5" d="M172.13,53.27a8.93,8.93,0,0,1,8.93-8.86,8.83,8.83,0,0,1,3.34.65,10.8,10.8,0,0,1,20.24,2.39A9.28,9.28,0,0,1,204,66H174.48a6.58,6.58,0,0,1-2.35-12.73Z"/><rect class="cls-5" x="58.19" y="312.39" width="31.73" height="55.42" rx="5.04" transform="translate(414.15 266.04) rotate(90)"/><path class="cls-6" d="M74.06,344.87a1,1,0,0,1-.54-.16L50.24,330a1,1,0,1,1,1.07-1.7l22.75,14.4,22.74-14.4a1,1,0,1,1,1.07,1.7L74.59,344.71A.94.94,0,0,1,74.06,344.87Z"/><path class="cls-4" d="M40.84,156.28H76.41a7.45,7.45,0,0,1,7.43,7.43v28.21L76.93,185H40.84a7.44,7.44,0,0,1-7.42-7.42V163.71A7.45,7.45,0,0,1,40.84,156.28Z"/><path class="cls-6" d="M42.08,166.46H75.69a1.25,1.25,0,0,0,1.24-1.24h0A1.25,1.25,0,0,0,75.69,164H42.08a1.25,1.25,0,0,0-1.24,1.24h0A1.25,1.25,0,0,0,42.08,166.46Z"/><path class="cls-6" d="M42.08,172.16H75.69a1.25,1.25,0,0,0,1.24-1.24h0a1.25,1.25,0,0,0-1.24-1.24H42.08a1.25,1.25,0,0,0-1.24,1.24h0A1.25,1.25,0,0,0,42.08,172.16Z"/><path class="cls-6" d="M53.52,177.86H75.69a1.25,1.25,0,0,0,1.24-1.24h0a1.25,1.25,0,0,0-1.24-1.24H53.52a1.24,1.24,0,0,0-1.23,1.24h0A1.24,1.24,0,0,0,53.52,177.86Z"/><path class="cls-5" d="M434.68,73.37H394.05a8.5,8.5,0,0,0-8.48,8.48v25.73l7.89-7.89h41.22a8.5,8.5,0,0,0,8.48-8.48V81.85A8.5,8.5,0,0,0,434.68,73.37Z"/><path class="cls-2" d="M433.27,85h-38.4a1.41,1.41,0,0,1-1.41-1.41h0a1.41,1.41,0,0,1,1.41-1.41h38.4a1.41,1.41,0,0,1,1.41,1.41h0A1.41,1.41,0,0,1,433.27,85Z"/><path class="cls-2" d="M420.2,91.52H394.87a1.42,1.42,0,0,1-1.41-1.42h0a1.41,1.41,0,0,1,1.41-1.41H420.2a1.41,1.41,0,0,1,1.41,1.41h0A1.42,1.42,0,0,1,420.2,91.52Z"/><ellipse id="_Path_" data-name="&lt;Path&gt;" class="cls-5" cx="250" cy="416.24" rx="193.89" ry="11.32"/><path class="cls-6" d="M200.05,267.44A73,73,0,0,1,127,340.52c-1.43,0-2.85,0-4.26-.13a72,72,0,0,1-14.5-2.3,73.09,73.09,0,1,1,91.84-70.65Z"/><path class="cls-7" d="M148.13,229.83h0c-8.3-3,1.87-17.84-13.07-24.62-15.29-7-30.76,2.38-27.86,10.23-5,1.43-6.35,13.57-.22,19.24a15,15,0,0,0,10.13,24.12h0a.36.36,0,0,0,.14,0h0a13.69,13.69,0,0,0,1.58.09,14,14,0,0,0,2.52-.22h0a13.17,13.17,0,0,0,2.34-.6h0a15.07,15.07,0,0,0,7-5.09,15.14,15.14,0,0,0,6.81,5h0c.19.06.37.13.57.18a12.78,12.78,0,0,0,2,.5,14.48,14.48,0,0,0,2.48.21,14.88,14.88,0,0,0,3.49-.41,15,15,0,0,0,1.9-28.65Z"/><path class="cls-8" d="M114.07,272.59c0-.67-.06-1.23-.13-2.06a5.47,5.47,0,0,0-10.89-.11,0,0,0,0,0,0,0,4.72,4.72,0,0,0,0,.84v.23c0,.32,0,.91,0,1.39v1.56c0,1,0,2.11-.1,3.17-.09,1.68-.23,3.38-.43,5.06,0,.44-.1.89-.16,1.33a82,82,0,0,1-2.64,12.6c-.29,1-.66,2-1,3.07s-.74,2-1.11,3l-.42,1.15a4.08,4.08,0,0,0-.2.49,2.42,2.42,0,0,1-.53-.21,12.69,12.69,0,0,1-2.29-1.42,45.53,45.53,0,0,1-4.71-4.17l-.13-.12-.16-.15h0A2.74,2.74,0,0,0,85,301.5a29.82,29.82,0,0,0,1.51,2.93c.08.15.17.3.26.45a26.92,26.92,0,0,0,2.19,3.18,19.4,19.4,0,0,0,3,3A10.68,10.68,0,0,0,97,313.37a8.14,8.14,0,0,0,3.83-.44,8.93,8.93,0,0,0,3.09-2,11.4,11.4,0,0,0,1.83-2.29c.23-.37.44-.74.62-1.1.1-.19.17-.35.23-.49s0,0,0,0,.12-.24.18-.38a71.07,71.07,0,0,0,2.84-6.82c.18-.5.35-1,.52-1.51.09-.26.18-.53.26-.8A75.13,75.13,0,0,0,113.17,286c0-.15,0-.29.07-.44l.15-1v-.07c0-.16.06-.34.08-.51v0q.39-2.85.53-5.73c0-.35,0-.71,0-1.06q.06-1.34.06-2.67C114.12,273.86,114.1,273.23,114.07,272.59Z"/><path class="cls-9" d="M108.17,260.59c8-3.72,13.36,12.29,11.9,25.41-11.43,1.61-21-5.33-21-5.33S98.76,264.94,108.17,260.59Z"/><path class="cls-9" d="M103.05,268.64c-.11,8,1,24.14,6.39,56.95H153c-.66-16.07-.74-26.55,5.58-55.54A9.19,9.19,0,0,0,150.72,259c-2.64-.34-5.57-.63-8.53-.77a137,137,0,0,0-19.76,0c-4,.36-8.32,1-11.71,1.57A9.17,9.17,0,0,0,103.05,268.64Z"/><path class="cls-10" d="M149.76,274.84l7.32,2.1c-1,4.95-1.8,9.31-2.42,13.23C149.26,288.44,144.27,278.83,149.76,274.84Z"/><path class="cls-8" d="M86.15,291.54l-3.89-4.47a2.11,2.11,0,0,0-3.56.61l-2.26,5.77a2.09,2.09,0,0,0,.31,2.07l3.92,5s3.2,4,7.64,4.26L90,300Z"/><path class="cls-6" d="M118.69,275.14l1,1.6,1.65-1a82.11,82.11,0,0,0,17.47-13.49,5,5,0,0,0,1.37-4.19,126.54,126.54,0,0,0-17.78.1c-1.68.15-3.4.35-5.08.57-.1.12-.21.24-.3.37C115.7,261.11,113.15,266.6,118.69,275.14Z"/><path class="cls-8" d="M136.74,236.75c-1,5.67-1.86,15.51,1.13,20.54a3,3,0,0,1-.47,3.61,79.9,79.9,0,0,1-17,13.15c-4.81-7.42-2.9-12-1.66-13.78a2.83,2.83,0,0,1,1.47-1.1c6.3-2,6-7.07,4.68-11.8Z"/><path class="cls-10" d="M133.73,241.82l-8.88,5.54a20,20,0,0,1,.69,3.5c2.06-.05,7-2.15,8.41-5.61A4.93,4.93,0,0,0,133.73,241.82Z"/><path class="cls-8" d="M137.67,219.37c2.65,10.3,4,14.6.57,21.43-5.15,10.28-18.38,11.28-24.05,2-5.1-8.37-8.57-23.81,0-31A14.5,14.5,0,0,1,137.67,219.37Z"/><path class="cls-7" d="M130.25,215.32c1.75,7.25,9.2,11.22,9.2,11.22s3.23-5.63,1-11.22S130.25,215.32,130.25,215.32Z"/><path class="cls-7" d="M135.51,220.29c-2.34,2.43-2,6.24-2,6.24a6.44,6.44,0,0,0,4.51-2.36C139.58,222,135.51,220.29,135.51,220.29Z"/><path class="cls-7" d="M135.63,218.49c-2.84,1.81-3.44,5.58-3.44,5.58a6.44,6.44,0,0,0,4.94-1.22C139.2,221.09,135.63,218.49,135.63,218.49Z"/><path class="cls-7" d="M109.7,215.49c-2.1,6.75,31.6,4.5,28.58-1s-10.86-8.33-15.9-7.83S111.31,210.74,109.7,215.49Z"/><path class="cls-7" d="M111,213.72c-2.61.54-4.25,10.5-2.56,10S120,211.81,111,213.72Z"/><path class="cls-7" d="M141.3,325.59s-.1.69-.28,2c-.31,2.28-.89,6.44-1.63,11.92a73.73,73.73,0,0,1-12.42,1c-1.43,0-2.85,0-4.26-.13a72,72,0,0,1-14.5-2.3c.46-4.79.82-8.46,1-10.54l.2-2Z"/><path class="cls-11" d="M141.3,325.59s-.1.69-.28,2c-.31,2.28-.89,6.44-1.63,11.92a73.73,73.73,0,0,1-12.42,1c-1.43,0-2.85,0-4.26-.13a72,72,0,0,1-14.5-2.3c.46-4.79.82-8.46,1-10.54l.2-2Z"/><path class="cls-7" d="M153.8,327.55a46,46,0,0,1,2.15,7,72.65,72.65,0,0,1-16.56,4.92,73.73,73.73,0,0,1-12.42,1c-1.43,0-2.85,0-4.26-.13-.73-5.91-1.27-10.43-1.55-12.84l-.23-2h32C153.25,326.22,153.54,326.88,153.8,327.55Z"/><path class="cls-11" d="M153.8,327.55a46,46,0,0,1,2.15,7,72.65,72.65,0,0,1-16.56,4.92,73.73,73.73,0,0,1-12.42,1c-1.43,0-2.85,0-4.26-.13-.73-5.91-1.27-10.43-1.55-12.84l-.23-2h32C153.25,326.22,153.54,326.88,153.8,327.55Z"/><path class="cls-7" d="M122.35,227.74c.27.82.05,1.63-.49,1.81s-1.19-.36-1.46-1.18,0-1.63.5-1.8S122.08,226.92,122.35,227.74Z"/><path class="cls-7" d="M113.06,230.75c.26.82,0,1.63-.49,1.8s-1.19-.35-1.46-1.17,0-1.63.49-1.8S112.79,229.93,113.06,230.75Z"/><path class="cls-7" d="M111.86,229.54l-2.16.07S111.21,230.83,111.86,229.54Z"/><path class="cls-12" d="M116.32,231.08a22.86,22.86,0,0,1-1.24,6.19,3.72,3.72,0,0,0,3.11-.4Z"/><path class="cls-7" d="M124.05,238.3a7.83,7.83,0,0,1-1.34.57.25.25,0,0,1-.32-.17.23.23,0,0,1,.16-.31,6.86,6.86,0,0,0,4.49-4.27.26.26,0,0,1,.31-.18.27.27,0,0,1,.18.31A7.16,7.16,0,0,1,124.05,238.3Z"/><path class="cls-8" d="M141.72,226a7.76,7.76,0,0,1-1.76,5.67c-1.75,2.09-4.16.89-5-1.57-.71-2.21-.66-6,1.72-7.15S141.46,223.54,141.72,226Z"/><path class="cls-7" d="M124.65,222.78a.52.52,0,0,1-.39-.1,4.09,4.09,0,0,0-3.58-.79.5.5,0,0,1-.64-.31.5.5,0,0,1,.31-.65,5,5,0,0,1,4.53.95.51.51,0,0,1,.09.71A.49.49,0,0,1,124.65,222.78Z"/><path class="cls-7" d="M108.74,229a.5.5,0,0,1-.38,0,.52.52,0,0,1-.32-.65,5,5,0,0,1,3.26-3.29.51.51,0,1,1,.26,1,4,4,0,0,0-2.55,2.64A.51.51,0,0,1,108.74,229Z"/><path class="cls-8" d="M162.53,284.14c-.44-2.38-.94-4.75-1.49-7.09-.19-.82-.39-1.63-.59-2.44-.55-2.13-1.09-4.21-1.71-6.32h0c-.3-1-.62-2-1-3.09a5.47,5.47,0,0,0-10.46,3.22l0,.08c.62,2.2,1.28,4.49,1.89,6.79.18.68.36,1.37.53,2.05.46,1.8.9,3.61,1.33,5.41q.42,1.77.81,3.54c.2.92.39,1.83.57,2.75q.63,3.11,1.13,6.19l.18,1.27c.21,1.55.4,3.09.54,4.61-.34,0-.69-.1-1-.17l-.45-.09a61.07,61.07,0,0,1-7.78-2.43c-2.64-1-5.3-2.08-7.95-3.21s-5.08-2.22-7.57-3.34l-.36-.16,0,0a2.72,2.72,0,0,0-2.74,4.67c.32.24.64.48,1,.7h0c2.12,1.55,4.28,3,6.47,4.37,2.55,1.59,5.15,3.1,7.87,4.52a58.4,58.4,0,0,0,8.7,3.74c.75.23,1.5.45,2.31.63a17.88,17.88,0,0,0,3.19.45,9.35,9.35,0,0,0,4.2-.71,7.25,7.25,0,0,0,2.61-1.9,7.62,7.62,0,0,0,1.55-2.92,5.12,5.12,0,0,0,.15-1V304A97.82,97.82,0,0,0,162.53,284.14Z"/><path class="cls-9" d="M148.67,258.73c8.81,1,11.23,3.69,15.75,16.09a128.17,128.17,0,0,1-18.77,10.55S138.36,257.58,148.67,258.73Z"/><path class="cls-7" d="M153.6,323l1.11,3.9c.15.3-.2.61-.71.61H109.23c-.4,0-.72-.2-.75-.44l-.39-3.9c0-.27.31-.5.74-.5h44.06A.81.81,0,0,1,153.6,323Z"/><path class="cls-7" d="M147.68,328h1.18c.24,0,.42-.12.4-.27l-.55-5.06c0-.15-.22-.27-.46-.27h-1.18c-.23,0-.41.12-.4.27l.56,5.06C147.24,327.85,147.45,328,147.68,328Z"/><path class="cls-11" d="M147.68,328h1.18c.24,0,.42-.12.4-.27l-.55-5.06c0-.15-.22-.27-.46-.27h-1.18c-.23,0-.41.12-.4.27l.56,5.06C147.24,327.85,147.45,328,147.68,328Z"/><path class="cls-7" d="M112.54,328h1.18c.24,0,.42-.12.4-.27l-.55-5.06c0-.15-.23-.27-.46-.27h-1.18c-.24,0-.41.12-.4.27l.56,5.06C112.1,327.85,112.31,328,112.54,328Z"/><path class="cls-11" d="M112.54,328h1.18c.24,0,.42-.12.4-.27l-.55-5.06c0-.15-.23-.27-.46-.27h-1.18c-.24,0-.41.12-.4.27l.56,5.06C112.1,327.85,112.31,328,112.54,328Z"/><path class="cls-7" d="M130.11,328h1.18c.24,0,.42-.12.4-.27l-.55-5.06c0-.15-.23-.27-.46-.27H129.5c-.24,0-.41.12-.4.27l.56,5.06C129.67,327.85,129.88,328,130.11,328Z"/><path class="cls-11" d="M130.11,328h1.18c.24,0,.42-.12.4-.27l-.55-5.06c0-.15-.23-.27-.46-.27H129.5c-.24,0-.41.12-.4.27l.56,5.06C129.67,327.85,129.88,328,130.11,328Z"/><path d="M120.76,298.59h-8.7a1.84,1.84,0,0,1-1.8-1.41l-4.37-18.25a1.41,1.41,0,0,1,1.38-1.77H116a1.86,1.86,0,0,1,1.81,1.43l4.37,18.23A1.41,1.41,0,0,1,120.76,298.59Z"/><path class="cls-7" d="M119.73,298.59H111a1.86,1.86,0,0,1-1.81-1.43l-4.37-18.23a1.41,1.41,0,0,1,1.38-1.77h8.69a1.86,1.86,0,0,1,1.81,1.43l4.37,18.23A1.41,1.41,0,0,1,119.73,298.59Z"/><path class="cls-8" d="M130.06,296.59l-.26-4.41-6.23-7.09a6.15,6.15,0,0,0-3.51-2l-4-.75a2.25,2.25,0,0,0-2.67,2.27l.18,5.68a2.24,2.24,0,0,0,1.39,2l7,2.91h0C123.91,296.32,127.31,297.84,130.06,296.59Z"/><path class="cls-7" d="M121.15,226.54l-2.16.07S120.5,227.82,121.15,226.54Z"/><path class="cls-9" d="M127,341a73.58,73.58,0,1,1,73.58-73.58A73.67,73.67,0,0,1,127,341Zm0-146.16a72.58,72.58,0,1,0,72.58,72.58A72.66,72.66,0,0,0,127,194.86Z"/><path class="cls-6" d="M446.11,196.34A73.08,73.08,0,1,1,373,123.26,73.1,73.1,0,0,1,446.11,196.34Z"/><path class="cls-7" d="M370.42,143.92c-9-4.7-14.25,7-12.09,15.14a30.5,30.5,0,0,0,7.84,13.36s8.55-12.35,8.59-18.15C374.8,147.09,373.76,145.67,370.42,143.92Z"/><path class="cls-7" d="M365.23,169.11c-.28-1.78-5.5-.64-4.22,1.29S365.36,170,365.23,169.11Z"/><path class="cls-7" d="M364.8,169.37c-1.66-.72-3.5,4.3-1.18,4.25S365.57,169.71,364.8,169.37Z"/><path class="cls-7" d="M367.93,146c-4.18-4.14,5.55-7.7,15-6s12.54,10,9.2,14C389.5,157.2,373.06,151,367.93,146Z"/><path class="cls-7" d="M367.54,143.46c1.5-1-1.75-5.25-3-3.27S366.84,143.93,367.54,143.46Z"/><path class="cls-7" d="M395.4,223.14c0,.93-.06,1.89-.1,2.87,0,.53-.05,1.08-.08,1.63-.08,1.43-.17,2.9-.28,4.41,0,.64-.09,1.28-.15,1.93a2.45,2.45,0,0,1,0,.27c0,.66-.1,1.33-.17,2q-.33,3.68-.81,7.64c-.87,7.16-2.15,15-4,23.57A73.28,73.28,0,0,1,339,261c.57-4.77,1.32-11,1.94-18.16.34-3.9.65-8.1.87-12.5,0-.33,0-.67,0-1,.05-1.07.1-2.15.14-3.24l.06-2c0-.91.05-1.83.07-2.76l0-2.28v-1c0-.51,0-1,0-1.55,0-1.75,0-3.51-.06-5.29v-.09c-.1-4.6-.34-9.29-.76-14,0-.28,0-.57-.07-.85a8.76,8.76,0,0,1,8.17-9.52h.16c1.15-.07,2.38-.12,3.62-.16s2.28,0,3.43,0h.65l1.92,0,2.17.06,1.87.05c3.56.13,7.35.33,10.68.63l.65.06c1.28.12,2.47.26,3.55.41l.62.09c.87.13,1.73.28,2.57.45l.41.08c1.38.27,2.7.57,3.93.86,4.31,1.05,7.44,2.12,7.44,2.12l0,.06a74,74,0,0,1,1.48,9.1c.42,3.81.79,8.8.85,14.91h0C395.51,217.89,395.49,220.43,395.4,223.14Z"/><path class="cls-13" d="M411.19,243.29a17.13,17.13,0,0,0-.47-3c-.42-1.76-.78-2.74-1.15-4l-2.21-7.34-4.43-14.73c-1.49-4.91-3-9.83-4.6-14.68l-13.71,4.16c1.43,5,3,9.94,4.62,14.87s3.34,9.83,5.15,14.72c.1.28.2.55.31.83l-4.64,4.14a51.78,51.78,0,0,0,4.6,6.84,33.65,33.65,0,0,0,3,3.27,17.78,17.78,0,0,0,2.06,1.71,9.77,9.77,0,0,0,1.71.95,4.68,4.68,0,0,0,.65.25l.38.11.48.12a7.07,7.07,0,0,0,2.83,0,8.78,8.78,0,0,0,1-.29,7.71,7.71,0,0,0,1.08-.53,6.8,6.8,0,0,0,1.76-1.54,7.15,7.15,0,0,0,1.41-2.92A9.79,9.79,0,0,0,411.19,243.29Z"/><path class="cls-7" d="M383.49,196.79c-3.71,8.24,8,31.88,8,31.88l15.88-4.38s.58-14.07-5.32-24.16C396,189.76,387.55,187.74,383.49,196.79Z"/><path class="cls-9" d="M384.28,190.54a3.38,3.38,0,0,0-2.52-2.08l-.41-.08c-.84-.17-1.7-.32-2.57-.45-5.83-.9-15.63-1.26-22.11-1.34h0l2,2.45c2.74,3.26,7.84,9.33,17.36,10.52a16.37,16.37,0,0,0,2,.14h0c3.7,0,5.37-1.58,6.12-2.9A7.4,7.4,0,0,0,384.28,190.54Z"/><path class="cls-10" d="M350.92,207.59l-8.8,3.41a2.62,2.62,0,0,1,0,.28c.11,5.1.06,10.09-.12,14.86C351.17,222.34,351.32,210.93,350.92,207.59Z"/><path class="cls-13" d="M365.13,173.59c.34,5-.54,10.24-4.29,13.66a.79.79,0,0,0-.09,1.1c3.35,3.91,7.81,8.25,15.57,9.23,7.94,1,7.27-4.44,5.48-7.65a.77.77,0,0,0-.43-.34c-6.43-2.3-5.71-6.74-5-11.61a2.44,2.44,0,0,0-1.28-2.53l-7.2-3.7A1.93,1.93,0,0,0,365.13,173.59Z"/><path class="cls-10" d="M376.37,178.26l-7.81-.28a11,11,0,0,0,.43,1.08c1.06,2.56,4,4.62,7.22,5.72C375.68,182.85,376,180.6,376.37,178.26Z"/><path class="cls-13" d="M367,154.74c-2.66,9-4.68,14.13-1.88,20.27,4.21,9.22,16.54,9.15,21.84,1.13,4.77-7.22,8.32-20.72,1-27.36A12.8,12.8,0,0,0,367,154.74Z"/><path class="cls-7" d="M364.85,163.39c6.37,3.4,15-19,5.79-19S361.87,161.8,364.85,163.39Z"/><path class="cls-13" d="M360.25,159.52a8.93,8.93,0,0,0,2.45,6.36c2.17,2.25,4,.55,4.75-2.32.64-2.59,1.09-6.74-1.72-7.92S360.35,156.63,360.25,159.52Z"/><path class="cls-7" d="M379,161.65c-.26.72-.09,1.44.38,1.61s1.06-.27,1.32-1,.09-1.44-.38-1.61S379.27,160.94,379,161.65Z"/><path class="cls-7" d="M387.84,165.11c-.26.72-.09,1.44.38,1.61s1.06-.28,1.32-1,.09-1.44-.38-1.61S388.11,164.39,387.84,165.11Z"/><path class="cls-14" d="M384.86,164.43s.12,4.73,1.19,7.38c-1.7.72-3.66-.61-3.66-.61Z"/><path class="cls-7" d="M380.45,173.21a6.3,6.3,0,0,1-3.55-3.5.23.23,0,0,1,.43-.14,6,6,0,0,0,4.17,3.52.22.22,0,0,1,.16.28.23.23,0,0,1-.27.16A7.39,7.39,0,0,1,380.45,173.21Z"/><path class="cls-7" d="M378.65,158.19a.44.44,0,0,1-.17-.16.45.45,0,0,1,.13-.61,4.42,4.42,0,0,1,4.06-.49.44.44,0,1,1-.36.81h0a3.57,3.57,0,0,0-3.21.43A.45.45,0,0,1,378.65,158.19Z"/><path class="cls-7" d="M393.15,163.63a.46.46,0,0,1-.23-.35,3.57,3.57,0,0,0-1.68-2.77.44.44,0,0,1-.19-.6.45.45,0,0,1,.6-.2,4.51,4.51,0,0,1,2.16,3.47.45.45,0,0,1-.66.45Z"/><path class="cls-13" d="M372.6,218.88c-3.2,1.38-6.45,2.85-9.7,4.15s-6.48,2.67-9.71,3.87a89.12,89.12,0,0,1-9.55,3.06c-.68.18-1.37.33-2,.45.27-1,.57-2.09.91-3.14a78.85,78.85,0,0,1,3.65-9c1.43-3,3-5.93,4.68-8.84q1.25-2.19,2.58-4.32l1.35-2.11c.43-.68.93-1.44,1.3-2l-11.6-8.42c-.66.91-1.17,1.63-1.72,2.43s-1.05,1.6-1.55,2.4c-1,1.6-2,3.21-2.92,4.86a102,102,0,0,0-5,10.23,76.93,76.93,0,0,0-3.76,11.06,48.81,48.81,0,0,0-1.17,5.92c-.08.5-.15,1-.2,1.52l-.08.77,0,.39,0,.68a10.9,10.9,0,0,0,.29,3.26,9.34,9.34,0,0,0,2.09,3.92,9.11,9.11,0,0,0,3.46,2.35,11,11,0,0,0,2.91.69,16.57,16.57,0,0,0,4.17-.17,36.09,36.09,0,0,0,6.21-1.64,87.7,87.7,0,0,0,10.4-4.68A156.12,156.12,0,0,0,376.17,225Z"/><path class="cls-7" d="M347.87,187.22c-9,1.18-16.2,27.47-16.2,27.47l18.08,5.9S352.48,215,358,204.7C364.1,193.51,358.73,185.79,347.87,187.22Z"/><path class="cls-13" d="M383.26,214.06l-4.54-.27a3.15,3.15,0,0,0-2.21.75L370,220.19l2.57,5.12c3.83,2.71,10.21-3.36,10.21-3.36l2.33-.55a2.7,2.7,0,0,0,1.62-4.12l-1.36-2A2.7,2.7,0,0,0,383.26,214.06Z"/><path class="cls-6" d="M388.91,236.2,381.24,235a1.24,1.24,0,0,1-1-1.7l7.57-18a1.25,1.25,0,0,1,1.33-.74l7.67,1.17a1.24,1.24,0,0,1,.95,1.7l-7.57,18A1.22,1.22,0,0,1,388.91,236.2Z"/><path class="cls-9" d="M389.94,236.35l-7.67-1.18a1.23,1.23,0,0,1-.95-1.69l7.57-18a1.23,1.23,0,0,1,1.32-.75l7.68,1.18a1.23,1.23,0,0,1,.95,1.69l-7.57,18A1.24,1.24,0,0,1,389.94,236.35Z"/><path class="cls-13" d="M396.87,234.38l-7.93-9.61-4.41,9.82a11.23,11.23,0,0,0,7,4.25Z"/><path class="cls-13" d="M379.92,226.13l.47,3.24a4.44,4.44,0,0,0,1.37,2.63l2.77,2.59,4.41-9.82-6.13-1.33A2.4,2.4,0,0,0,379.92,226.13Z"/><path class="cls-7" d="M381.16,150c-2.62,5.74,14.82,12.52,14.8,4.41S382.4,147.35,381.16,150Z"/><path class="cls-7" d="M370.36,146.69c-2.27,6.84,29.42,10.53,27.86,1.48S371.42,143.48,370.36,146.69Z"/><path class="cls-7" d="M379.8,148.65c2.63,5.74,19.17-3,13-8.32S378.57,146,379.8,148.65Z"/><path class="cls-9" d="M373,269.92a73.58,73.58,0,1,1,73.58-73.58A73.67,73.67,0,0,1,373,269.92Zm0-146.16a72.58,72.58,0,1,0,72.58,72.58A72.66,72.66,0,0,0,373,123.76Z"/><path class="cls-9" d="M180.25,133.47H179.2V120.63a16.16,16.16,0,0,1,16.15-16.15v1a15.11,15.11,0,0,0-15.1,15.1Z"/><rect class="cls-9" x="179.2" y="141.41" width="1.05" height="8.33"/><rect class="cls-6" x="182.73" y="108" width="134.55" height="244.14" rx="12.62"/><path class="cls-9" d="M304.65,352.67H195.35a13.17,13.17,0,0,1-13.15-13.15V120.63a13.17,13.17,0,0,1,13.15-13.15h109.3a13.17,13.17,0,0,1,13.15,13.15V339.52A13.17,13.17,0,0,1,304.65,352.67ZM195.35,108.53a12.12,12.12,0,0,0-12.1,12.1V339.52a12.12,12.12,0,0,0,12.1,12.1h109.3a12.12,12.12,0,0,0,12.1-12.1V120.63a12.12,12.12,0,0,0-12.1-12.1Z"/><path class="cls-9" d="M304.65,108H195.35a12.66,12.66,0,0,0-12.62,12.63H317.27A12.66,12.66,0,0,0,304.65,108Z"/><path class="cls-6" d="M203.36,114.32a3.83,3.83,0,1,1-3.83-3.84A3.84,3.84,0,0,1,203.36,114.32Z"/><path class="cls-6" d="M302.32,114.32a.87.87,0,0,1-1.73,0,.87.87,0,1,1,1.73,0Z"/><path class="cls-6" d="M302.32,117.43a.87.87,0,0,1-1.73,0,.87.87,0,1,1,1.73,0Z"/><circle class="cls-6" cx="301.46" cy="111.2" r="0.86"/><path class="cls-15" d="M234.26,116.12H208.72a1.81,1.81,0,0,1-1.81-1.81h0a1.81,1.81,0,0,1,1.81-1.8h25.54a1.81,1.81,0,0,1,1.81,1.8h0A1.81,1.81,0,0,1,234.26,116.12Z"/><rect class="cls-9" x="231.65" y="133.47" width="77.74" height="34.24" rx="4.55"/><rect class="cls-16" x="190.61" y="175.23" width="77.74" height="17.94" rx="4.55"/><rect class="cls-16" x="190.61" y="226.17" width="77.74" height="59.3" rx="4.55"/><rect class="cls-9" x="272.83" y="292.24" width="36.56" height="17.94" rx="4.55"/><path class="cls-6" d="M293.42,300.05a2.31,2.31,0,1,1-2.31-2.31A2.3,2.3,0,0,1,293.42,300.05Z"/><path class="cls-6" d="M285.77,301.21a2.31,2.31,0,1,1-2.31-2.3A2.31,2.31,0,0,1,285.77,301.21Z"/><path class="cls-6" d="M301.08,302.38a2.31,2.31,0,1,1-2.31-2.31A2.32,2.32,0,0,1,301.08,302.38Z"/><rect class="cls-9" x="231.65" y="200.7" width="77.74" height="17.94" rx="4.55"/><circle class="cls-9" cx="194.78" cy="340.09" r="4.17"/><circle class="cls-16" cx="207.38" cy="340.09" r="4.17"/><circle class="cls-1" cx="219.99" cy="340.09" r="4.17"/><path class="cls-1" d="M305.22,344.26h-34.1a4.18,4.18,0,0,1-4.17-4.17h0a4.19,4.19,0,0,1,4.17-4.17h34.1a4.18,4.18,0,0,1,4.17,4.17h0A4.17,4.17,0,0,1,305.22,344.26Z"/><rect class="cls-9" x="182.73" y="322.5" width="134.55" height="1.05"/></g></svg>