<svg xmlns="http://www.w3.org/2000/svg" viewBox="0 0 500 500"><defs><style>.cls-1{fill:#ebebeb;}.cls-2{fill:#e6e6e6;}.cls-3{fill:#f5f5f5;}.cls-4{fill:#fafafa;}.cls-5,.cls-9{fill:#fff;}.cls-6{fill:#f0f0f0;}.cls-7{fill:#e0e0e0;}.cls-10,.cls-11,.cls-12,.cls-8{fill:#407bff;}.cls-9{opacity:0.95;}.cls-10,.cls-16{opacity:0.7;}.cls-11{opacity:0.15;}.cls-12{opacity:0.5;}.cls-13{fill:#ffc3bd;}.cls-14,.cls-16{fill:#263238;}.cls-15{opacity:0.2;}.cls-17{fill:#ed847e;}.cls-18{fill:#ff8b7b;}.cls-19{opacity:0.6;}.cls-20{fill:#ff5652;}</style></defs><g id="Character_1" data-name="Character 1"><rect class="cls-1" y="386.23" width="500" height="0.25"/><rect class="cls-1" x="288.4" y="400.17" width="33.12" height="0.25"/><rect class="cls-1" x="407.08" y="397.46" width="8.69" height="0.25"/><rect class="cls-1" x="327.67" y="393.04" width="68.92" height="0.25"/><rect class="cls-1" x="194.84" y="398.94" width="30.3" height="0.25"/><rect class="cls-1" x="166.72" y="398.94" width="19.22" height="0.25"/><rect class="cls-1" x="52.46" y="394.72" width="46.84" height="0.25"/><path class="cls-1" d="M237,341.63H43.91a5.71,5.71,0,0,1-5.7-5.71V64.49a5.72,5.72,0,0,1,5.7-5.71H237a5.72,5.72,0,0,1,5.71,5.71V335.92A5.71,5.71,0,0,1,237,341.63ZM43.91,59a5.46,5.46,0,0,0-5.45,5.46V335.92a5.46,5.46,0,0,0,5.45,5.46H237a5.47,5.47,0,0,0,5.46-5.46V64.49A5.47,5.47,0,0,0,237,59Z"/><path class="cls-1" d="M453.31,341.63H260.21a5.72,5.72,0,0,1-5.71-5.71V64.49a5.73,5.73,0,0,1,5.71-5.71h193.1A5.72,5.72,0,0,1,459,64.49V335.92A5.71,5.71,0,0,1,453.31,341.63ZM260.21,59a5.47,5.47,0,0,0-5.46,5.46V335.92a5.47,5.47,0,0,0,5.46,5.46h193.1a5.47,5.47,0,0,0,5.46-5.46V64.49A5.47,5.47,0,0,0,453.31,59Z"/><rect class="cls-2" x="57.34" y="81.8" width="170.29" height="156.78" transform="translate(284.97 320.37) rotate(180)"/><rect class="cls-3" x="53.3" y="81.8" width="172.58" height="156.78" transform="translate(279.17 320.37) rotate(180)"/><rect class="cls-4" x="69.04" y="81.15" width="141.1" height="158.07" transform="translate(299.77 20.6) rotate(90)"/><polygon class="cls-5" points="199.09 230.74 145.93 89.64 123.55 89.64 176.71 230.74 199.09 230.74"/><polygon class="cls-5" points="170.36 230.74 117.21 89.64 101.8 89.64 154.95 230.74 170.36 230.74"/><rect class="cls-2" x="47.84" y="155.86" width="141.1" height="8.66" transform="translate(278.58 41.8) rotate(90)"/><rect class="cls-2" x="96.03" y="155.86" width="141.1" height="8.66" transform="translate(326.77 -6.4) rotate(90)"/><rect class="cls-3" x="39.73" y="154.29" width="151.9" height="10.94" transform="translate(275.44 44.07) rotate(90)"/><rect class="cls-3" x="87.93" y="154.29" width="151.9" height="10.94" transform="translate(323.64 -4.12) rotate(90)"/><rect class="cls-2" x="-9.61" y="159.8" width="141.1" height="0.77" transform="translate(221.12 99.25) rotate(90)"/><rect class="cls-6" x="183.23" y="168.77" width="109.22" height="325.69" transform="translate(569.46 93.77) rotate(90)"/><rect class="cls-3" x="217.51" y="153.95" width="40.68" height="299.19" rx="2.72" transform="translate(541.39 65.69) rotate(90)"/><rect class="cls-3" x="212.34" y="204.37" width="51.02" height="299.19" rx="2.72" transform="translate(591.81 116.12) rotate(90)"/><path class="cls-6" d="M327.55,282.53H148.14a5.29,5.29,0,0,0,5.29,5.29H322.26A5.29,5.29,0,0,0,327.55,282.53Z"/><path class="cls-6" d="M327.55,327.78H148.14a5.29,5.29,0,0,0,5.29,5.29H322.26A5.29,5.29,0,0,0,327.55,327.78Z"/><rect class="cls-2" x="358.23" y="319.46" width="109.22" height="24.31" transform="translate(744.46 -81.23) rotate(90)"/><rect class="cls-4" x="234.48" y="110.79" width="6.73" height="325.69" transform="translate(-35.79 511.49) rotate(-90)"/><path class="cls-3" d="M372.06,260.52a9.75,9.75,0,0,0,19.5,0Z"/><path class="cls-3" d="M346.07,260.52a9.75,9.75,0,0,0,19.5,0Z"/><path class="cls-3" d="M78.5,267c0,1.82,8.11,3.29,18.11,3.29s18.11-1.47,18.11-3.29Z"/><path class="cls-3" d="M78.5,265.26c0,1.82,8.11,3.29,18.11,3.29s18.11-1.47,18.11-3.29Z"/><rect class="cls-7" x="409.48" y="261.49" width="6.73" height="24.31" transform="translate(139.21 686.49) rotate(-90)"/><rect class="cls-1" x="354.96" y="79.79" width="59.44" height="77.45"/><rect class="cls-3" x="352.19" y="79.79" width="59.44" height="77.45"/><rect class="cls-5" x="360.18" y="90.2" width="43.47" height="56.64"/><rect class="cls-1" x="296.16" y="163.05" width="59.44" height="93.92" transform="translate(115.88 535.88) rotate(-90)"/><rect class="cls-3" x="293.3" y="163.05" width="59.44" height="93.92" transform="translate(113.02 533.03) rotate(-90)"/><rect class="cls-5" x="301.29" y="173.45" width="43.47" height="73.1" transform="translate(113.02 533.03) rotate(-90)"/><rect class="cls-1" x="398.84" y="173.18" width="48.33" height="47.62"/><rect class="cls-3" x="396.07" y="173.18" width="48.33" height="47.62"/><rect class="cls-5" x="404.06" y="183.58" width="32.36" height="26.81"/><rect class="cls-1" x="291.26" y="116.22" width="48.33" height="47.62"/><rect class="cls-3" x="288.5" y="116.22" width="48.33" height="47.62"/><rect class="cls-5" x="296.49" y="126.63" width="32.36" height="26.81"/><ellipse id="_Path_" data-name="&lt;Path&gt;" class="cls-3" cx="250" cy="420.07" rx="193.89" ry="11.32"/><rect class="cls-8" x="315.75" y="131.91" width="1.04" height="6.58"/><path class="cls-8" d="M316.79,126.56h-1a14.47,14.47,0,0,0-14.46-14.45v-1A15.51,15.51,0,0,1,316.79,126.56Z"/><rect class="cls-8" x="151.41" y="114.71" width="161.74" height="305.22" rx="11.86"/><rect class="cls-9" x="83.43" y="191.02" width="296.09" height="152.6" rx="7.29" transform="translate(498.8 35.84) rotate(90)"/><circle class="cls-8" cx="231.48" cy="395.81" r="8.25"/><path class="cls-8" d="M225.17,118.44a6.81,6.81,0,0,0,13.62,0Z"/><path class="cls-10" d="M276.51,148h-89a13.73,13.73,0,0,0-13.7,13.7v9.13a13.73,13.73,0,0,0,13.7,13.7h89l13.7,8.12v-31A13.74,13.74,0,0,0,276.51,148Z"/><rect class="cls-5" x="189.94" y="161.08" width="84.09" height="2.28"/><rect class="cls-5" x="206.12" y="169.17" width="67.91" height="2.28"/><path class="cls-11" d="M187.46,208.83h89a13.75,13.75,0,0,1,13.7,13.7v9.13a13.74,13.74,0,0,1-13.7,13.7h-89l-13.7,8.12V222.53A13.74,13.74,0,0,1,187.46,208.83Z"/><rect class="cls-12" x="189.94" y="221.91" width="84.09" height="2.28"/><rect class="cls-12" x="189.94" y="230" width="39" height="2.28"/><rect class="cls-12" x="235.03" y="230" width="15.86" height="2.28"/><path class="cls-10" d="M276.51,269.66h-89a13.74,13.74,0,0,0-13.7,13.7v9.14a13.74,13.74,0,0,0,13.7,13.7h89l13.7,8.11V283.36A13.75,13.75,0,0,0,276.51,269.66Z"/><rect class="cls-5" x="189.94" y="282.74" width="84.09" height="2.28"/><rect class="cls-5" x="206.12" y="290.83" width="67.91" height="2.28"/><path class="cls-11" d="M187.46,330.5h34.63a13.74,13.74,0,0,1,13.7,13.7v9.13a13.75,13.75,0,0,1-13.7,13.7H187.46l-13.7,8.12V344.2A13.73,13.73,0,0,1,187.46,330.5Z"/><path class="cls-12" d="M194.4,348.76a4,4,0,1,1-4-4A4,4,0,0,1,194.4,348.76Z"/><circle class="cls-12" cx="202.49" cy="345.53" r="4.05"/><path class="cls-12" d="M218.67,353.62a4,4,0,1,1-4-4.05A4,4,0,0,1,218.67,353.62Z"/><path class="cls-13" d="M344.33,339c1.1,2.19,2.08,4.39,3.11,6.6s2,4.43,2.92,6.67,1.88,4.49,2.76,6.78,1.77,4.58,2.58,7l-3.58-3.37a20.61,20.61,0,0,0,6.48,1.12,52.82,52.82,0,0,0,7.66-.35c2.64-.28,5.3-.71,8-1.22s5.4-1.11,8-1.72l2.37,5.75a70.06,70.06,0,0,1-8.06,3.78,75.4,75.4,0,0,1-8.49,2.82,52.44,52.44,0,0,1-9.16,1.6,29.14,29.14,0,0,1-10.29-.85l-2.35-.64L345,370.24c-1.92-4.2-4-8.53-6-12.84-1-2.16-2.05-4.32-3.05-6.5s-2-4.35-3-6.53Z"/><path class="cls-13" d="M379,362.29l3.93-3.84,6.24,6.76s-2.26,3.94-7.88,1.64Z"/><polygon class="cls-13" points="388.86 355.91 392.3 361.53 389.18 365.21 382.94 358.45 388.86 355.91"/><path class="cls-14" d="M326.67,330c8-3.09,14.2,1.52,24.31,14.29l-11.84,12.16S311.07,336,326.67,330Z"/><path class="cls-15" d="M341.69,343.24c-3.78-2.45-7.07-1.75-9.85.52,1.05,3.89,3.74,8.35,6.33,12,.61.47,1,.73,1,.73l6.6-6.78A9.14,9.14,0,0,0,341.69,343.24Z"/><polygon class="cls-13" points="387.6 414.87 397.18 413.76 396.38 394.12 386.81 395.23 387.6 414.87"/><path class="cls-14" d="M397.26,409.63l-10.79.15a.74.74,0,0,0-.69.66l-1.22,8.49a1.44,1.44,0,0,0,1.35,1.68c3.35-.12,4.89-.37,9.12-.43,2.61,0,10.47.15,14.07.09s3.84-4,2.35-4.34c-6.69-1.51-10.54-3.65-12.77-5.73A2,2,0,0,0,397.26,409.63Z"/><path class="cls-8" d="M399.55,407.13a1,1,0,0,1,.92.11.71.71,0,0,1,.39.55c.12,1-2,2.8-2.29,3a.2.2,0,0,1-.3-.19c.07-1.07.32-3,1.17-3.42Zm-.87,3.06c.84-.73,1.88-1.82,1.81-2.37a.27.27,0,0,0-.17-.24.7.7,0,0,0-.69-.06C399.17,407.78,398.82,408.76,398.68,410.19Z"/><path class="cls-8" d="M399.45,409.84a3,3,0,0,1,2.32-.2.74.74,0,0,1,.31.8.9.9,0,0,1-.47.67c-1,.55-3.12-.27-3.21-.3a.22.22,0,0,1-.13-.15.19.19,0,0,1,.06-.18A3.76,3.76,0,0,1,399.45,409.84Zm1.86,1,.11-.05a.6.6,0,0,0,.3-.42c0-.24-.05-.33-.13-.38-.48-.31-1.95.09-2.74.6A4.52,4.52,0,0,0,401.31,410.82Z"/><polygon class="cls-15" points="386.81 395.23 396.38 394.12 396.79 404.25 387.17 404.3 386.81 395.23"/><path class="cls-8" d="M339.84,383.83s24.86-23.13,41-23.47c11.78-.26,20.2,38.7,20.2,38.7l-14,.27s-2.46-13.77-11.61-17.58c-13.22,19.84-67.11,59.05-62,16.55C321.43,395.29,339.84,383.83,339.84,383.83Z"/><path class="cls-15" d="M339.84,383.83s24.86-23.13,41-23.47c11.78-.26,20.2,38.7,20.2,38.7l-14,.27s-2.46-13.77-11.61-17.58c-13.22,19.84-67.11,59.05-62,16.55C321.43,395.29,339.84,383.83,339.84,383.83Z"/><polygon class="cls-14" points="400.99 401.01 384.53 402.58 384.58 396.58 401.99 394.51 400.99 401.01"/><path class="cls-14" d="M307.2,399.77s-10.69-20.87-12-54.51c-.3-7.92,6.83-15.38,15-15.81,6.86-.36,14.12-.45,20-.42a10.73,10.73,0,0,1,11.05,9.57c1.48,12.49,1.74,31.43,9.39,54Z"/><path class="cls-15" d="M300.21,345.44c5.89-6.66,7.92-4.54,8.8-3.74,8.16,7.4-3.82,30.4-6.22,33.79a165.91,165.91,0,0,1-3-26.06A13.34,13.34,0,0,1,300.21,345.44Z"/><path class="cls-13" d="M318.16,309.47c-.66,6.12-2.28,15.53-6.45,19.91,3.28,3.08,8.62,6.12,16.21,7.39,3.92-1.62,4.44-5.23,2.54-7.74-6.7-1.17-6.62-3.07-4.09-7.34Z"/><path class="cls-15" d="M321.51,314.45l4.86,7.23a12.83,12.83,0,0,0-1.49,3.21c-2.38-1-5-4.64-4.48-7.31A9.43,9.43,0,0,1,321.51,314.45Z"/><path class="cls-14" d="M335.72,298.16c3.93,4.17,12.19,4.19,8.64-.75S332.66,294.91,335.72,298.16Z"/><path class="cls-13" d="M319.79,297.72c-2.19,7.95-3.87,12.48-1.38,18a10.64,10.64,0,0,0,18.85,1.5c4-6.33,6.94-18.27.53-24.35A10.69,10.69,0,0,0,319.79,297.72Z"/><path class="cls-13" d="M318,305.13c1-.17,5.94-1.68,8.35-4,2.71-2.61,2.73-5.13,2-6.29s-6.45-3.36-9.12-2.85c-4.22.81-3.18,8.28-3.12,10.3A3.35,3.35,0,0,0,318,305.13Z"/><path class="cls-16" d="M318,305.13c1-.17,5.94-1.68,8.35-4,2.71-2.61,2.73-5.13,2-6.29s-6.45-3.36-9.12-2.85c-4.22.81-3.18,8.28-3.12,10.3A3.35,3.35,0,0,0,318,305.13Z"/><path class="cls-13" d="M313.81,305.68a7.48,7.48,0,0,0,3.91,3.82c2.3.93,3.61-1,3.11-3.35-.45-2.07-2.19-5.06-4.56-5S312.87,303.57,313.81,305.68Z"/><path class="cls-14" d="M321.33,294.38c10.2,2.19,17.45,7.93,22.27,4.47,3.41-2.44,1.17-6.89-2.74-10.11-3.34-2.75-8-3.6-9.4-5.85a3.86,3.86,0,0,0,1.58,4s-9.21-1.42-11.76-3.82c-.61,1.43,1.75,4.19,1.75,4.19s-2.6,2.47-10-.32C313.47,289.33,315.53,293.14,321.33,294.38Z"/><path class="cls-14" d="M341.59,299.66h-.4l0-.52a4.05,4.05,0,0,0,4.25-2.47,5.53,5.53,0,0,0-1.84-6.2,13.81,13.81,0,0,0-2.87-1.72c-2.37-1.19-5.06-2.54-6.36-6.47l.49-.16c1.23,3.72,3.71,5,6.11,6.17a14,14,0,0,1,3,1.79,6,6,0,0,1,2,6.79A4.48,4.48,0,0,1,341.59,299.66Z"/><path class="cls-14" d="M331.35,305.48c-.22.64-.06,1.28.34,1.44s.91-.22,1.13-.85.06-1.27-.34-1.44S331.56,304.85,331.35,305.48Z"/><path class="cls-14" d="M338.89,307.76c-.21.63-.06,1.27.35,1.44s.91-.22,1.12-.85.07-1.28-.34-1.44S339.11,307.13,338.89,307.76Z"/><path class="cls-17" d="M336.12,307a25.16,25.16,0,0,0,1.12,6.59c-1.46.61-3.17-.62-3.17-.62Z"/><path class="cls-14" d="M330,314.49a5.88,5.88,0,0,1-2.8-3.48.19.19,0,0,1,.14-.23.2.2,0,0,1,.23.15,5.67,5.67,0,0,0,3.35,3.57.19.19,0,0,1,.11.25.18.18,0,0,1-.24.12A6.45,6.45,0,0,1,330,314.49Z"/><path class="cls-14" d="M329.3,301.35a.5.5,0,0,1-.15-.14.4.4,0,0,1,.11-.55,3.72,3.72,0,0,1,3.49-.35.41.41,0,0,1,.2.53.36.36,0,0,1-.5.19h0a3,3,0,0,0-2.76.31A.39.39,0,0,1,329.3,301.35Z"/><path class="cls-14" d="M341.46,305.89a.41.41,0,0,1-.26-.27,3.27,3.27,0,0,0-1.9-2.19.43.43,0,0,1-.26-.51.36.36,0,0,1,.47-.25,4.08,4.08,0,0,1,2.42,2.74.38.38,0,0,1-.25.49A.33.33,0,0,1,341.46,305.89Z"/><polygon class="cls-13" points="420.83 419.54 426.53 411.25 411.18 397.88 405.48 406.17 420.83 419.54"/><path class="cls-14" d="M422.59,407.33l-6.69,8.33a.78.78,0,0,0,0,1l5.21,6.48a1.32,1.32,0,0,0,2.06,0c2.11-2.72,3.52-4.81,6.23-8.19,1.67-2.08,6.92-8.16,9.23-11s-.33-5.64-1.54-4.68c-5.43,4.29-10.26,6.92-13.18,7.33A2,2,0,0,0,422.59,407.33Z"/><path class="cls-8" d="M422.15,403.91a1,1,0,0,1,.64-.67.69.69,0,0,1,.68,0c.91.52,1,3.31,1,3.62a.19.19,0,0,1-.12.17.2.2,0,0,1-.21,0c-.82-.71-2.18-2-2-3A.52.52,0,0,1,422.15,403.91Zm1.93,2.53c-.08-1.11-.33-2.6-.81-2.87a.28.28,0,0,0-.3,0,.68.68,0,0,0-.46.51C422.44,404.6,423,405.47,424.08,406.44Z"/><path class="cls-8" d="M424.27,405.62c.23-.86.67-1.78,1.22-2a.74.74,0,0,1,.83.23,1,1,0,0,1,.26.78c-.14,1.1-2.08,2.34-2.17,2.4a.21.21,0,0,1-.19,0,.19.19,0,0,1-.11-.15A3.77,3.77,0,0,1,424.27,405.62Zm1.9-.91s0-.08,0-.12a.57.57,0,0,0-.17-.49c-.16-.18-.28-.16-.37-.13-.53.2-1.09,1.62-1.16,2.56A4.69,4.69,0,0,0,426.17,404.71Z"/><polygon class="cls-15" points="405.48 406.18 411.18 397.88 419.1 404.78 412.56 412.35 405.48 406.18"/><path class="cls-8" d="M322.81,396.73s43.7-44.41,63.37-25.41c12.25,11.84,30.25,28.15,30.25,28.15L406,409.62s-26.42-14.05-33.3-21.81c-36.1,40.36-68.36,43.12-65.46,12A120.88,120.88,0,0,1,322.81,396.73Z"/><polygon class="cls-14" points="419.54 399.57 408.08 413.97 403.22 410.7 414.93 395.41 419.54 399.57"/><path class="cls-13" d="M307.35,342.44l.86,18.21c.16,3,.35,6,.58,9,.12,1.48.28,2.93.44,4.32.09.69.18,1.37.29,2s.23,1.2.31,1.55a.85.85,0,0,1,0,.17c0-.09-.08-.12-.14-.22a2.27,2.27,0,0,0-.54-.53,1.7,1.7,0,0,0-.54-.26c-.11,0-.17,0-.12,0a5.51,5.51,0,0,0,2.45-.16,41.55,41.55,0,0,0,7.69-2.73c2.67-1.17,5.33-2.52,8-3.92s5.34-2.89,7.93-4.34l3.74,5a101,101,0,0,1-15.21,11.67c-1.39.86-2.83,1.67-4.35,2.44a33.65,33.65,0,0,1-4.93,2.08,22.25,22.25,0,0,1-2.95.75,13.8,13.8,0,0,1-3.73.17,10.25,10.25,0,0,1-2.36-.51,9.3,9.3,0,0,1-2.56-1.38,9.13,9.13,0,0,1-2.07-2.24,10.87,10.87,0,0,1-.68-1.24l-.38-.91a27.67,27.67,0,0,1-.89-2.92c-.22-.89-.4-1.72-.56-2.55-.33-1.65-.58-3.26-.8-4.85-.46-3.18-.79-6.31-1.07-9.44-.56-6.27-.89-12.45-1-18.74Z"/><path class="cls-14" d="M304.28,330.71c-4.71.54-11.76,5-12,25.78l20.2-1.59S322,328.69,304.28,330.71Z"/><path class="cls-8" d="M351.55,355l-7.5.5a2.21,2.21,0,0,0-1.86,1.68l-3.51,16.47a1.13,1.13,0,0,0,1.19,1.48l7.5-.49a2.21,2.21,0,0,0,1.86-1.68l3.51-16.48A1.13,1.13,0,0,0,351.55,355Z"/><path class="cls-13" d="M335.17,365.12l6.21-2.15-1.53,9.73s-6.92,1.52-7.49-2.2l1-3.32A3.16,3.16,0,0,1,335.17,365.12Z"/><polygon class="cls-13" points="348.48 363.78 345.79 372.44 339.85 372.69 341.38 362.96 348.48 363.78"/><path class="cls-14" d="M133.38,159.79c-4.88-11.33,21.73-23.2,29.25-5.56,12.77,5.56-3.55,29.16.14,33.16s6.47-.86,6.47-.86,3.73,9.94-5.78,17.9c-8.52,7.15-34.15,9.09-34.21-5C129.17,181.17,139.78,174.68,133.38,159.79Z"/><polygon class="cls-18" points="157.85 397.69 150.69 401.86 133.5 382.21 142.42 374.17 157.85 397.69"/><path class="cls-14" d="M149.87,400.06l7.39-5.67a.64.64,0,0,1,.84,0l4.94,4.82a1.28,1.28,0,0,1-.23,1.9c-2.6,1.94-3.95,2.75-7.2,5.24-2,1.53-6,4.9-8.74,7s-4.82-.32-3.85-1.43c4.38-5,5.33-8,6-10.67A2.28,2.28,0,0,1,149.87,400.06Z"/><path class="cls-8" d="M148.21,403a3.21,3.21,0,0,1-1.87.84,1,1,0,0,1-.82-.49.62.62,0,0,1,0-.59c.5-1,4.06-1.79,4.46-1.87a.18.18,0,0,1,.2.08.22.22,0,0,1,0,.22A15.35,15.35,0,0,1,148.21,403Zm-2.12-.38a.88.88,0,0,0-.25.28.23.23,0,0,0,0,.24.65.65,0,0,0,.53.33c.65,0,1.78-.75,3.06-2.09A11.44,11.44,0,0,0,146.09,402.65Z"/><path class="cls-8" d="M150.09,401.25l-.08,0c-1,.27-3.57.13-4-.66-.09-.18-.12-.48.28-.85a1.49,1.49,0,0,1,1.05-.42c1.31,0,2.71,1.55,2.76,1.62a.17.17,0,0,1,0,.18A.36.36,0,0,1,150.09,401.25Zm-3.44-1.3-.09.08c-.26.25-.2.37-.18.41.24.47,2.07.71,3.21.55a4,4,0,0,0-2.26-1.26A1.09,1.09,0,0,0,146.65,400Z"/><path class="cls-18" d="M131.82,200.91c-.47,2.15-1,4.1-1.6,6.11s-1.22,4-1.94,5.92a102.61,102.61,0,0,1-4.86,11.54l-1.47,2.8c-.53.92-1,1.85-1.6,2.75l-.86,1.36c-.3.46-.53.87-.94,1.4a10.63,10.63,0,0,1-.67.83,7.23,7.23,0,0,1-1.14,1.08,4.41,4.41,0,0,1-1.71.8,3.13,3.13,0,0,1-.88.1,3.62,3.62,0,0,1-1.07-.15,3.78,3.78,0,0,1-1.71-1,4,4,0,0,1-1-1.69,4.85,4.85,0,0,1-.19-.92,10.06,10.06,0,0,1,0-2.17c.07-.6.17-1.16.27-1.7.2-1.08.46-2.11.73-3.12a58.06,58.06,0,0,1,2-5.92l4,.88-.27,5.95c0,1-.06,1.94-.07,2.86,0,.46,0,.91,0,1.32a2.84,2.84,0,0,0,.12.84s0,0,0-.18a2.42,2.42,0,0,0-.62-1,3.26,3.26,0,0,0-1.4-.85,3.3,3.3,0,0,0-.88-.12,3.08,3.08,0,0,0-.7.07,2.69,2.69,0,0,0-1,.46c-.21.15-.13.07-.09,0l.23-.39,1.34-2.41c.45-.83.86-1.7,1.3-2.54l1.23-2.61c1.56-3.53,3-7.16,4.2-10.86.62-1.85,1.19-3.72,1.76-5.59s1.08-3.79,1.53-5.57Z"/><path class="cls-18" d="M128.4,190.5c-2.9.47-7.5,18.9-7.5,18.9l6.69,5.15s6.71-13.32,7-19.31C134.79,190.9,130.59,190.15,128.4,190.5Z"/><path class="cls-18" d="M117.91,220.7l-1.13-9.17-5.25,7.7a4.92,4.92,0,0,0,3.91,3.69Z"/><polygon class="cls-18" points="154.6 413.24 146.6 413.52 145.07 385.59 156.17 385.75 154.6 413.24"/><path class="cls-14" d="M146.06,411l9-.07a.58.58,0,0,1,.6.54l.54,7.09a1.39,1.39,0,0,1-1.38,1.43c-3.12,0-4.62-.2-8.56-.18-2.43,0-6,.3-9.34.32s-3.31-3.29-1.89-3.6c6.35-1.39,7.46-3.25,9.69-5A2.16,2.16,0,0,1,146.06,411Z"/><path class="cls-8" d="M127.91,190.45s-4,1-4,48.32L156,241.61c1.61-13.19,2.91-21.3,13.54-47.72a91.79,91.79,0,0,0-13.33-3,101.86,101.86,0,0,0-14.56-1.29C135.25,189.61,127.91,190.45,127.91,190.45Z"/><path class="cls-15" d="M163.17,199.93l1.71,5.83c-1.34,3.61-2.45,6.8-3.38,9.67A32.51,32.51,0,0,1,163.17,199.93Z"/><polygon class="cls-18" points="116.78 211.53 111.53 219.23 117.91 218.86 121.31 211.82 116.78 211.53"/><path class="cls-14" d="M120.11,229.24l6-.09a1.39,1.39,0,0,0,1.36-1.59l-1.87-13.45a1.39,1.39,0,0,0-1.4-1.2l-6,.09a1.39,1.39,0,0,0-1.36,1.58L118.71,228A1.39,1.39,0,0,0,120.11,229.24Z"/><path class="cls-18" d="M157.41,174.24c-1.69,4.64-4,13.2-1.25,16.64a61.89,61.89,0,0,1-15.9,9.65c-3.35-7.82,1.34-10.94,1.34-10.94,5.43-.79,5.93-4.71,5.61-8.45Z"/><path class="cls-14" d="M135.43,168.93c-.84,13.88-9.19,17.86-7.23,25,2.77,10,14.07,2.16,14.07,2.16s-6.15,2-6.54-2.86c-.32-4,13.88-3.37,9.94-12.79C143.14,174.39,135.43,168.93,135.43,168.93Z"/><path class="cls-15" d="M154.5,177.75l-7.28,3.38a14.57,14.57,0,0,1,0,2.64c1.52.14,5.46-1,6.95-3.46A3.71,3.71,0,0,0,154.5,177.75Z"/><path class="cls-18" d="M158.67,161.18c.73,7.89,1.21,11.21-2.12,15.83-5,7-14.85,6.13-17.92-1.38-2.77-6.76-3.5-18.53,3.67-22.82A10.8,10.8,0,0,1,158.67,161.18Z"/><path class="cls-14" d="M156.93,153.28c-6.22-4.28-11.39,3.92-.35,11.9S164,158.13,156.93,153.28Z"/><path class="cls-14" d="M153.62,151c2.57,2.31-12.73,10.83-21.05,8s-1.64-9.18,1.39-10c-2.6,2.52,1.95,6.33,4.15,3.94S148.46,146.35,153.62,151Z"/><path class="cls-8" d="M123.87,238.77s-16.93,71.69-15.44,89.79c1.73,21.16,24.87,55.27,24.87,55.27l10.63-9.64S133.38,346.24,125.57,328c2.5-18.19,24.6-69.62,24.6-86.94Z"/><path class="cls-19" d="M123.87,238.77s-16.93,71.69-15.44,89.79c1.73,21.16,24.87,55.27,24.87,55.27l10.63-9.64S133.38,346.24,125.57,328c2.5-18.19,24.6-69.62,24.6-86.94Z"/><polygon class="cls-8" points="145.89 375.62 133.33 384.99 130.11 382.54 143.89 371.67 145.89 375.62"/><path class="cls-15" d="M136.4,270.31c-9.33,12.91-9.78,36.67-9.2,50,3.2-12.27,9.91-30.58,15.26-47.07C142.33,266.92,140.76,264.26,136.4,270.31Z"/><path class="cls-8" d="M129.89,238.83s6.2,61.92,8.27,82.81c2.46,24.81,6.07,64.6,6.07,64.6l11.94-.49s2.62-33.74.68-56c.35-29.5,4.7-69.61-.9-88.17Z"/><path class="cls-19" d="M129.89,238.83s6.2,61.92,8.27,82.81c2.46,24.81,6.07,64.6,6.07,64.6l11.94-.49s2.62-33.74.68-56c.35-29.5,4.7-69.61-.9-88.17Z"/><polygon class="cls-8" points="157.08 387.93 143.38 387.54 142.42 383.23 157.92 382.8 157.08 387.93"/><path class="cls-14" d="M146.41,165.53c.1.64-.16,1.2-.58,1.27s-.83-.4-.93-1,.16-1.2.58-1.27S146.31,164.89,146.41,165.53Z"/><path class="cls-14" d="M139.22,166.64c.1.64-.16,1.21-.58,1.27s-.83-.4-.93-1,.16-1.21.58-1.27S139.12,166,139.22,166.64Z"/><path class="cls-14" d="M138.47,165.62l-1.59-.21S137.85,166.48,138.47,165.62Z"/><path class="cls-20" d="M141.58,167.27a17.29,17.29,0,0,1-1.64,4.41,2.74,2.74,0,0,0,2.33.08Z"/><path class="cls-14" d="M146.41,173.5a6.2,6.2,0,0,1-1,.26.2.2,0,0,1-.22-.16.2.2,0,0,1,.16-.22,5.09,5.09,0,0,0,3.8-2.6.19.19,0,0,1,.25-.1.19.19,0,0,1,.1.25A5.29,5.29,0,0,1,146.41,173.5Z"/><path class="cls-18" d="M160.86,166.57a5.81,5.81,0,0,1-2,4c-1.54,1.33-3.17.16-3.46-1.74-.27-1.71.22-4.47,2.11-5.06A2.61,2.61,0,0,1,160.86,166.57Z"/><path class="cls-14" d="M149.68,161.59a.38.38,0,0,1-.29-.06,3.06,3.06,0,0,0-2.7-.45.37.37,0,0,1-.49-.2.39.39,0,0,1,.21-.5,3.76,3.76,0,0,1,3.41.53.38.38,0,0,1-.14.68Z"/><path class="cls-14" d="M136.1,163.88a.37.37,0,0,1-.46-.52,3.76,3.76,0,0,1,2.67-2.18.38.38,0,0,1,.43.32.38.38,0,0,1-.32.43,3,3,0,0,0-2.1,1.75A.36.36,0,0,1,136.1,163.88Z"/><path class="cls-18" d="M171.65,203.5c.15,1.45.23,2.71.27,4.06s.07,2.65.06,4c0,2.66-.21,5.31-.51,8a56.11,56.11,0,0,1-1.5,8,37.1,37.1,0,0,1-1.3,4c-.25.66-.53,1.31-.82,2l-.25.5a3.82,3.82,0,0,1-.37.58,5.34,5.34,0,0,1-.86,1,6.77,6.77,0,0,1-1.75,1.1,9.93,9.93,0,0,1-2.84.72,16,16,0,0,1-2.35.1,33.12,33.12,0,0,1-4.22-.37,73.2,73.2,0,0,1-7.77-1.67c-2.51-.69-5-1.45-7.43-2.26s-4.85-1.71-7.26-2.72l1.25-3.85c2.43.53,4.9,1.1,7.36,1.57s4.91,1,7.35,1.36,4.88.73,7.24.88a27.7,27.7,0,0,0,3.39.05,11.5,11.5,0,0,0,1.44-.16,2.94,2.94,0,0,0,.83-.26s0,0-.15.09a1.09,1.09,0,0,0-.24.24l-.12.18c0,.05-.09.2,0,.07.19-.52.38-1,.54-1.58.34-1.08.62-2.18.87-3.32a60.79,60.79,0,0,0,1-7c.22-2.38.29-4.8.29-7.22,0-1.21,0-2.42,0-3.63s-.11-2.46-.18-3.54Z"/><path class="cls-18" d="M169.46,193.89c3.45,2.25,2.28,21.86,2.28,21.86l-8.12,1.63s-.07-9.95-.94-16.48C162.09,196.49,167,192.28,169.46,193.89Z"/><path class="cls-8" d="M141.66,411.89a1,1,0,0,1-.17-.92.72.72,0,0,1,.41-.53c1-.43,3.28,1.12,3.54,1.3a.17.17,0,0,1,.07.19.23.23,0,0,1-.15.15c-1.05.25-2.92.57-3.62-.11Zm3.18-.08c-1-.59-2.3-1.25-2.81-1a.3.3,0,0,0-.17.24.68.68,0,0,0,.15.67C142.39,412.06,143.43,412.1,144.84,411.81Z"/><path class="cls-8" d="M144.28,411.18a3.05,3.05,0,0,1-.89-2.16.74.74,0,0,1,.68-.53.9.9,0,0,1,.78.25c.81.76.67,3.06.66,3.15a.21.21,0,0,1-.1.17.21.21,0,0,1-.19,0A3.89,3.89,0,0,1,144.28,411.18Zm.38-2.07-.08-.09a.59.59,0,0,0-.49-.16c-.25,0-.3.14-.33.23-.15.55.67,1.84,1.39,2.44A4.47,4.47,0,0,0,144.66,409.11Z"/><path class="cls-5" d="M156.74,239.76l.35,3c.08.23-.22.44-.59.41l-33-2.92c-.29,0-.51-.19-.5-.38l.19-2.91c0-.21.29-.35.6-.33l32.49,2.88A.53.53,0,0,1,156.74,239.76Z"/><path class="cls-8" d="M151.78,243l.87.07c.18,0,.32-.06.33-.17l.2-3.79c0-.11-.13-.22-.3-.23l-.87-.08c-.17,0-.32.07-.33.18l-.2,3.79C151.47,242.91,151.61,243,151.78,243Z"/><path class="cls-19" d="M151.78,243l.87.07c.18,0,.32-.06.33-.17l.2-3.79c0-.11-.13-.22-.3-.23l-.87-.08c-.17,0-.32.07-.33.18l-.2,3.79C151.47,242.91,151.61,243,151.78,243Z"/><path class="cls-8" d="M125.87,240.74l.87.07c.18,0,.32-.06.33-.17l.2-3.79c0-.11-.13-.22-.3-.23l-.87-.08c-.18,0-.32.06-.33.17l-.2,3.8C125.56,240.62,125.7,240.72,125.87,240.74Z"/><path class="cls-19" d="M125.87,240.74l.87.07c.18,0,.32-.06.33-.17l.2-3.79c0-.11-.13-.22-.3-.23l-.87-.08c-.18,0-.32.06-.33.17l-.2,3.8C125.56,240.62,125.7,240.72,125.87,240.74Z"/><path class="cls-8" d="M138.83,241.88l.87.08c.17,0,.32-.06.32-.18l.21-3.79c0-.11-.13-.21-.31-.23l-.87-.07c-.17,0-.32.06-.32.17l-.21,3.79C138.52,241.76,138.66,241.87,138.83,241.88Z"/><path class="cls-19" d="M138.83,241.88l.87.08c.17,0,.32-.06.32-.18l.21-3.79c0-.11-.13-.21-.31-.23l-.87-.07c-.17,0-.32.06-.32.17l-.21,3.79C138.52,241.76,138.66,241.87,138.83,241.88Z"/><path class="cls-18" d="M135.25,226.94l-5-6.67-2.08,8s3.72,3.25,6.88,2Z"/><polygon class="cls-18" points="123.85 218.81 122.46 225.55 129.21 229 130.28 220.27 123.85 218.81"/><path class="cls-14" d="M145.67,164.5l-1.6-.2S145,165.37,145.67,164.5Z"/></g></svg>